G04*
G04 #@! TF.GenerationSoftware,Altium Limited,Altium Designer,19.1.8 (144)*
G04*
G04 Layer_Color=8388736*
%FSLAX25Y25*%
%MOIN*%
G70*
G01*
G75*
%ADD18C,0.00000*%
G04:AMPARAMS|DCode=43|XSize=72.96mil|YSize=59.18mil|CornerRadius=0mil|HoleSize=0mil|Usage=FLASHONLY|Rotation=45.000|XOffset=0mil|YOffset=0mil|HoleType=Round|Shape=Rectangle|*
%AMROTATEDRECTD43*
4,1,4,-0.00487,-0.04672,-0.04672,-0.00487,0.00487,0.04672,0.04672,0.00487,-0.00487,-0.04672,0.0*
%
%ADD43ROTATEDRECTD43*%

G04:AMPARAMS|DCode=44|XSize=74.93mil|YSize=49.34mil|CornerRadius=0mil|HoleSize=0mil|Usage=FLASHONLY|Rotation=45.000|XOffset=0mil|YOffset=0mil|HoleType=Round|Shape=Rectangle|*
%AMROTATEDRECTD44*
4,1,4,-0.00905,-0.04394,-0.04394,-0.00905,0.00905,0.04394,0.04394,0.00905,-0.00905,-0.04394,0.0*
%
%ADD44ROTATEDRECTD44*%

G04:AMPARAMS|DCode=45|XSize=72.96mil|YSize=59.18mil|CornerRadius=0mil|HoleSize=0mil|Usage=FLASHONLY|Rotation=135.000|XOffset=0mil|YOffset=0mil|HoleType=Round|Shape=Rectangle|*
%AMROTATEDRECTD45*
4,1,4,0.04672,-0.00487,0.00487,-0.04672,-0.04672,0.00487,-0.00487,0.04672,0.04672,-0.00487,0.0*
%
%ADD45ROTATEDRECTD45*%

%ADD46O,0.06496X0.02165*%
%ADD47R,0.07296X0.05918*%
%ADD48R,0.04934X0.07493*%
%ADD49R,0.07493X0.04934*%
%ADD50R,0.05918X0.07296*%
%ADD51R,0.04343X0.08083*%
%ADD52R,0.13398X0.08083*%
%ADD53R,0.08280X0.14186*%
%ADD54R,0.06300X0.07100*%
%ADD55R,0.07100X0.06300*%
G04:AMPARAMS|DCode=56|XSize=25.59mil|YSize=62.99mil|CornerRadius=0mil|HoleSize=0mil|Usage=FLASHONLY|Rotation=315.000|XOffset=0mil|YOffset=0mil|HoleType=Round|Shape=Round|*
%AMOVALD56*
21,1,0.03740,0.02559,0.00000,0.00000,45.0*
1,1,0.02559,-0.01322,-0.01322*
1,1,0.02559,0.01322,0.01322*
%
%ADD56OVALD56*%

G04:AMPARAMS|DCode=57|XSize=25.59mil|YSize=62.99mil|CornerRadius=0mil|HoleSize=0mil|Usage=FLASHONLY|Rotation=225.000|XOffset=0mil|YOffset=0mil|HoleType=Round|Shape=Round|*
%AMOVALD57*
21,1,0.03740,0.02559,0.00000,0.00000,315.0*
1,1,0.02559,-0.01322,0.01322*
1,1,0.02559,0.01322,-0.01322*
%
%ADD57OVALD57*%

%ADD58P,0.06699X4X180.0*%
%ADD59R,0.04737X0.04737*%
%ADD60O,0.02769X0.04737*%
G04:AMPARAMS|DCode=61|XSize=15.75mil|YSize=57.09mil|CornerRadius=0mil|HoleSize=0mil|Usage=FLASHONLY|Rotation=45.000|XOffset=0mil|YOffset=0mil|HoleType=Round|Shape=Round|*
%AMOVALD61*
21,1,0.04134,0.01575,0.00000,0.00000,135.0*
1,1,0.01575,0.01462,-0.01462*
1,1,0.01575,-0.01462,0.01462*
%
%ADD61OVALD61*%

G04:AMPARAMS|DCode=62|XSize=228.47mil|YSize=90.68mil|CornerRadius=0mil|HoleSize=0mil|Usage=FLASHONLY|Rotation=315.000|XOffset=0mil|YOffset=0mil|HoleType=Round|Shape=Rectangle|*
%AMROTATEDRECTD62*
4,1,4,-0.11284,0.04872,-0.04872,0.11284,0.11284,-0.04872,0.04872,-0.11284,-0.11284,0.04872,0.0*
%
%ADD62ROTATEDRECTD62*%

%ADD63R,0.08280X0.07493*%
G04:AMPARAMS|DCode=64|XSize=31.62mil|YSize=65.09mil|CornerRadius=0mil|HoleSize=0mil|Usage=FLASHONLY|Rotation=315.000|XOffset=0mil|YOffset=0mil|HoleType=Round|Shape=Round|*
%AMOVALD64*
21,1,0.03347,0.03162,0.00000,0.00000,45.0*
1,1,0.03162,-0.01183,-0.01183*
1,1,0.03162,0.01183,0.01183*
%
%ADD64OVALD64*%

G04:AMPARAMS|DCode=65|XSize=59.18mil|YSize=67.06mil|CornerRadius=16.8mil|HoleSize=0mil|Usage=FLASHONLY|Rotation=315.000|XOffset=0mil|YOffset=0mil|HoleType=Round|Shape=RoundedRectangle|*
%AMROUNDEDRECTD65*
21,1,0.05918,0.03347,0,0,315.0*
21,1,0.02559,0.06706,0,0,315.0*
1,1,0.03359,-0.00278,-0.02088*
1,1,0.03359,-0.02088,-0.00278*
1,1,0.03359,0.00278,0.02088*
1,1,0.03359,0.02088,0.00278*
%
%ADD65ROUNDEDRECTD65*%
G04:AMPARAMS|DCode=66|XSize=90.68mil|YSize=67.06mil|CornerRadius=18.76mil|HoleSize=0mil|Usage=FLASHONLY|Rotation=315.000|XOffset=0mil|YOffset=0mil|HoleType=Round|Shape=RoundedRectangle|*
%AMROUNDEDRECTD66*
21,1,0.09068,0.02953,0,0,315.0*
21,1,0.05315,0.06706,0,0,315.0*
1,1,0.03753,0.00835,-0.02923*
1,1,0.03753,-0.02923,0.00835*
1,1,0.03753,-0.00835,0.02923*
1,1,0.03753,0.02923,-0.00835*
%
%ADD66ROUNDEDRECTD66*%
%ADD67C,0.06800*%
%ADD68C,0.07800*%
%ADD69C,0.07296*%
%ADD70C,0.05150*%
%ADD71O,0.11099X0.11099*%
%ADD72C,0.11099*%
%ADD73C,0.10249*%
%ADD74C,0.03300*%
%ADD75C,0.12500*%
%ADD76C,0.02900*%
D18*
X37921Y158709D02*
Y161858D01*
X30441D02*
X37921D01*
X30441Y158709D02*
Y161858D01*
Y158709D02*
X37921D01*
X19220Y187843D02*
Y190992D01*
X11740D02*
X19220D01*
X11740Y187843D02*
Y190992D01*
Y187843D02*
X19220D01*
X37921D02*
Y190992D01*
X30441D02*
X37921D01*
X30441Y187843D02*
Y190992D01*
Y187843D02*
X37921D01*
X19220Y158709D02*
Y161858D01*
X11740D02*
X19220D01*
X11740Y158709D02*
Y161858D01*
Y158709D02*
X19220D01*
D43*
X148203Y84897D02*
D03*
X155997Y77103D02*
D03*
X84140Y124618D02*
D03*
X91935Y116823D02*
D03*
X107998Y151103D02*
D03*
X100203Y158897D02*
D03*
X94716Y51248D02*
D03*
X102511Y43453D02*
D03*
X107333Y106658D02*
D03*
X115128Y98863D02*
D03*
X163803Y65597D02*
D03*
X171597Y57803D02*
D03*
X190903Y150997D02*
D03*
X198697Y143203D02*
D03*
X217397Y124503D02*
D03*
X209603Y132297D02*
D03*
D44*
X108975Y92712D02*
D03*
X101041Y100646D02*
D03*
X125719Y133668D02*
D03*
X133653Y125734D02*
D03*
D45*
X155072Y55552D02*
D03*
X147277Y47757D02*
D03*
X161436Y49188D02*
D03*
X153641Y41393D02*
D03*
D46*
X27925Y139634D02*
D03*
Y137075D02*
D03*
Y134516D02*
D03*
Y131957D02*
D03*
Y129398D02*
D03*
Y126839D02*
D03*
Y124279D02*
D03*
Y121721D02*
D03*
Y119161D02*
D03*
Y116602D02*
D03*
Y114043D02*
D03*
Y111484D02*
D03*
Y108925D02*
D03*
Y106366D02*
D03*
X56075Y139634D02*
D03*
Y137075D02*
D03*
Y134516D02*
D03*
Y131957D02*
D03*
Y129398D02*
D03*
Y126839D02*
D03*
Y124279D02*
D03*
Y121721D02*
D03*
Y119161D02*
D03*
Y116602D02*
D03*
Y114043D02*
D03*
Y111484D02*
D03*
Y108925D02*
D03*
Y106366D02*
D03*
D47*
X257500Y47688D02*
D03*
Y58712D02*
D03*
X257600Y71688D02*
D03*
Y82712D02*
D03*
X10000Y32106D02*
D03*
Y21083D02*
D03*
X70000Y7894D02*
D03*
Y18917D02*
D03*
X17400Y131788D02*
D03*
Y142812D02*
D03*
D48*
X237980Y90500D02*
D03*
X249200D02*
D03*
X113910Y177200D02*
D03*
X102690D02*
D03*
X27390Y96000D02*
D03*
X38610D02*
D03*
D49*
X80300Y90690D02*
D03*
X80300Y101910D02*
D03*
X90000Y90690D02*
D03*
Y101910D02*
D03*
X5500Y97490D02*
D03*
Y108710D02*
D03*
Y143010D02*
D03*
Y131790D02*
D03*
X79200Y74010D02*
D03*
Y62790D02*
D03*
X84000Y179110D02*
D03*
Y167890D02*
D03*
X74000Y179110D02*
D03*
Y167890D02*
D03*
X80000Y7894D02*
D03*
Y19114D02*
D03*
X69500Y74010D02*
D03*
Y62790D02*
D03*
D50*
X56312Y96000D02*
D03*
X45288D02*
D03*
X36488Y149800D02*
D03*
X47512D02*
D03*
D51*
X39055Y32106D02*
D03*
X30000D02*
D03*
X20945D02*
D03*
D52*
X30000Y7894D02*
D03*
D53*
X63177Y164500D02*
D03*
X47823D02*
D03*
D54*
X102600Y168400D02*
D03*
X114400D02*
D03*
X5500Y124200D02*
D03*
X17300D02*
D03*
X5500Y116700D02*
D03*
X17300D02*
D03*
D55*
X87900Y62800D02*
D03*
Y74600D02*
D03*
X89000Y19114D02*
D03*
Y7314D02*
D03*
D56*
X199026Y93537D02*
D03*
X196799Y95764D02*
D03*
X194572Y97991D02*
D03*
X192345Y100218D02*
D03*
X190118Y102445D02*
D03*
X187891Y104672D02*
D03*
X185664Y106899D02*
D03*
X183437Y109126D02*
D03*
X159774Y85463D02*
D03*
X162001Y83236D02*
D03*
X164228Y81009D02*
D03*
X166455Y78782D02*
D03*
X168682Y76555D02*
D03*
X170909Y74328D02*
D03*
X173136Y72101D02*
D03*
X175363Y69874D02*
D03*
D57*
Y109126D02*
D03*
X173136Y106899D02*
D03*
X170909Y104672D02*
D03*
X168682Y102445D02*
D03*
X166455Y100218D02*
D03*
X164228Y97991D02*
D03*
X162001Y95764D02*
D03*
X159774Y93537D02*
D03*
X183437Y69874D02*
D03*
X185664Y72101D02*
D03*
X187891Y74328D02*
D03*
X190118Y76555D02*
D03*
X192345Y78782D02*
D03*
X194572Y81009D02*
D03*
X196799Y83236D02*
D03*
X199026Y85463D02*
D03*
D58*
X108033Y116337D02*
D03*
X120282Y128586D02*
D03*
X132531Y116337D02*
D03*
X120282Y104087D02*
D03*
X103540Y145328D02*
D03*
X91290Y133079D02*
D03*
X79041Y145328D02*
D03*
X91290Y157577D02*
D03*
D59*
X249961Y41339D02*
D03*
X232639D02*
D03*
Y58661D02*
D03*
X249961D02*
D03*
Y65339D02*
D03*
X232639D02*
D03*
Y82661D02*
D03*
X249961D02*
D03*
D60*
X47260Y175835D02*
D03*
X51000D02*
D03*
X54740D02*
D03*
X47260Y186465D02*
D03*
X51000D02*
D03*
X54740D02*
D03*
D61*
X146350Y58734D02*
D03*
X147742Y60126D02*
D03*
X149134Y61518D02*
D03*
X150525Y62910D02*
D03*
X151917Y64302D02*
D03*
X133961Y71122D02*
D03*
X135353Y72514D02*
D03*
X136745Y73906D02*
D03*
X138137Y75298D02*
D03*
X139529Y76690D02*
D03*
D62*
X179877Y139823D02*
D03*
X206324Y113376D02*
D03*
D63*
X37674Y200823D02*
D03*
Y212823D02*
D03*
X8674Y200823D02*
D03*
Y212823D02*
D03*
D64*
X126706Y62007D02*
D03*
X123170Y65543D02*
D03*
X119635Y69078D02*
D03*
X116099Y72614D02*
D03*
X111533Y46835D02*
D03*
X107998Y50371D02*
D03*
X104462Y53906D02*
D03*
X100927Y57442D02*
D03*
D65*
X114492Y139456D02*
D03*
D66*
X97927Y122892D02*
D03*
D67*
X110000Y5000D02*
D03*
X120000D02*
D03*
X130000D02*
D03*
X140000D02*
D03*
X150000D02*
D03*
X160000D02*
D03*
X170000D02*
D03*
X180000D02*
D03*
X250000D02*
D03*
X240000D02*
D03*
X230000D02*
D03*
X220000D02*
D03*
X210000D02*
D03*
X200000D02*
D03*
X250000Y215000D02*
D03*
X240000D02*
D03*
X230000D02*
D03*
X220000D02*
D03*
X210000D02*
D03*
X200000D02*
D03*
X190000D02*
D03*
X180000D02*
D03*
X74000D02*
D03*
X84000D02*
D03*
X94000D02*
D03*
X104000D02*
D03*
X114000D02*
D03*
X124000D02*
D03*
X134000D02*
D03*
X144000D02*
D03*
X154000D02*
D03*
X164000D02*
D03*
Y205000D02*
D03*
X154000D02*
D03*
X144000D02*
D03*
X134000D02*
D03*
X124000D02*
D03*
X114000D02*
D03*
X104000D02*
D03*
X94000D02*
D03*
X84000D02*
D03*
X74000D02*
D03*
X180000Y15000D02*
D03*
X170000D02*
D03*
X160000D02*
D03*
X150000D02*
D03*
X140000D02*
D03*
X130000D02*
D03*
X120000D02*
D03*
X110000D02*
D03*
X180000Y205000D02*
D03*
X190000D02*
D03*
X200000D02*
D03*
X210000D02*
D03*
X220000D02*
D03*
X230000D02*
D03*
X240000D02*
D03*
X250000D02*
D03*
X200000Y15000D02*
D03*
X210000D02*
D03*
X220000D02*
D03*
X230000D02*
D03*
X240000D02*
D03*
X250000D02*
D03*
D68*
X260551Y104803D02*
D03*
X250551D02*
D03*
X260551Y114803D02*
D03*
X250551D02*
D03*
X260551Y124803D02*
D03*
X250551D02*
D03*
D69*
X69500Y94000D02*
D03*
Y104000D02*
D03*
Y114000D02*
D03*
D70*
X37724Y181150D02*
D03*
Y174850D02*
D03*
Y168551D02*
D03*
X33000Y178000D02*
D03*
Y171701D02*
D03*
D71*
X15480Y189417D02*
D03*
X34181D02*
D03*
Y160284D02*
D03*
D72*
X15480D02*
D03*
D73*
X44780Y44496D02*
D03*
X33000Y63000D02*
D03*
X56500D02*
D03*
D74*
X243300Y46600D02*
D03*
X135234Y59800D02*
D03*
X167700Y61700D02*
D03*
X169900Y82500D02*
D03*
X147900Y91600D02*
D03*
X159100Y89200D02*
D03*
X198600Y102000D02*
D03*
X194100Y106500D02*
D03*
X249200Y90500D02*
D03*
X227600Y83900D02*
D03*
X168000Y94700D02*
D03*
X241500Y119400D02*
D03*
X164800Y91300D02*
D03*
X103540Y145328D02*
D03*
X74000Y173500D02*
D03*
Y179000D02*
D03*
X182000Y77000D02*
D03*
X184500Y80000D02*
D03*
X154000Y69000D02*
D03*
X157000Y66500D02*
D03*
X190000Y87000D02*
D03*
X188500Y83500D02*
D03*
X90000Y90690D02*
D03*
X80300Y90690D02*
D03*
X140900Y69600D02*
D03*
X111400Y67900D02*
D03*
X209603Y132297D02*
D03*
X198697Y143203D02*
D03*
X232639Y65339D02*
D03*
X102511Y43453D02*
D03*
X148203Y84897D02*
D03*
X87900Y74600D02*
D03*
X91290Y133079D02*
D03*
X120282Y128586D02*
D03*
X107333Y106658D02*
D03*
X84140Y124618D02*
D03*
X133653Y125734D02*
D03*
X107998Y151103D02*
D03*
X56312Y96000D02*
D03*
X69500Y62790D02*
D03*
X173300Y81173D02*
D03*
X34600Y122200D02*
D03*
X34543Y114043D02*
D03*
X49420Y121721D02*
D03*
X32957Y131957D02*
D03*
D75*
X260000Y35000D02*
D03*
Y145000D02*
D03*
X60000Y205000D02*
D03*
X55000Y15000D02*
D03*
D76*
X114400Y168400D02*
D03*
X257500Y47688D02*
D03*
X257600Y71688D02*
D03*
X89000Y7314D02*
D03*
X70000Y18917D02*
D03*
X39055Y32106D02*
D03*
X10000Y21083D02*
D03*
X47512Y149800D02*
D03*
X17400Y142812D02*
D03*
X37674Y212823D02*
D03*
X8674D02*
D03*
X37674Y200823D02*
D03*
X47823Y164500D02*
D03*
M02*
