G04*
G04 #@! TF.GenerationSoftware,Altium Limited,Altium Designer,19.1.8 (144)*
G04*
G04 Layer_Color=32896*
%FSLAX25Y25*%
%MOIN*%
G70*
G01*
G75*
%ADD13C,0.00600*%
%ADD14C,0.00500*%
%ADD18C,0.00000*%
%ADD100C,0.00400*%
G36*
X49792Y158008D02*
X46060D01*
Y171009D01*
X49792D01*
Y158008D01*
D02*
G37*
G36*
X64908D02*
X61160D01*
Y171006D01*
X64908D01*
Y158008D01*
D02*
G37*
D13*
X114400Y165400D02*
Y171400D01*
X102600Y165400D02*
Y171400D01*
X114400D01*
Y165400D02*
Y171400D01*
X102600Y165400D02*
X114400D01*
X102600D02*
Y171400D01*
X17300Y121200D02*
Y127200D01*
X5500Y121200D02*
Y127200D01*
X17300D01*
Y121200D02*
Y127200D01*
X5500Y121200D02*
X17300D01*
X5500D02*
Y127200D01*
X17300Y113700D02*
Y119700D01*
X5500Y113700D02*
Y119700D01*
X17300D01*
Y113700D02*
Y119700D01*
X5500Y113700D02*
X17300D01*
X5500D02*
Y119700D01*
X84900Y74600D02*
X90900D01*
X84900Y62800D02*
X90900D01*
X84900D02*
Y74600D01*
X90900D01*
Y62800D02*
Y74600D01*
X84900Y62800D02*
X90900D01*
X86000Y7314D02*
X92000D01*
X86000Y19114D02*
X92000D01*
Y7314D02*
Y19114D01*
X86000Y7314D02*
X92000D01*
X86000D02*
Y19114D01*
X92000D01*
D14*
X38906Y159693D02*
Y190008D01*
X126D02*
X38906D01*
X126Y159693D02*
Y190008D01*
Y159693D02*
X38906D01*
Y190008D01*
X126D02*
X38906D01*
X126Y159693D02*
Y190008D01*
Y159693D02*
X38906D01*
D18*
X37921Y158709D02*
Y161858D01*
X30441D02*
X37921D01*
X30441Y158709D02*
Y161858D01*
Y158709D02*
X37921D01*
X19220Y187843D02*
Y190992D01*
X11740D02*
X19220D01*
X11740Y187843D02*
Y190992D01*
Y187843D02*
X19220D01*
X37921D02*
Y190992D01*
X30441D02*
X37921D01*
X30441Y187843D02*
Y190992D01*
Y187843D02*
X37921D01*
X19220Y158709D02*
Y161858D01*
X11740D02*
X19220D01*
X11740Y158709D02*
Y161858D01*
Y158709D02*
X19220D01*
D100*
X49700Y158200D02*
X61300D01*
X49700Y170800D02*
X61200D01*
X49700Y158200D02*
X61300D01*
X49700Y170800D02*
X61200D01*
M02*
