M48
;Layer_Color=9474304
;FILE_FORMAT=2:5
INCH,LZ
;TYPE=PLATED
T1F00S00C0.01300
T2F00S00C0.02756
T3F00S00C0.04331
T4F00S00C0.06299
T5F00S00C0.08000
T6F00S00C0.12500
%
T01
X001Y0021083
X0039055Y0032106
X007Y0018917
X0089Y0007314
X0102511Y0043453
X02433Y00466
X02575Y0047688
X02576Y0071688
X02492Y00905
X02276Y00839
X0232639Y0065339
X02415Y01194
X0209603Y0132297
X0198697Y0143203
X01986Y0102
X01941Y01065
X019Y0087
X01885Y00835
X01845Y008
X0182Y0077
X01733Y0081173
X01699Y00825
X01648Y00913
X0168Y00947
X01591Y00892
X01479Y00916
X0148203Y0084897
X0154Y0069
X0157Y00665
X01677Y00617
X0135234Y00598
X01409Y00696
X01114Y00679
X00879Y00746
X009Y009069
X00803Y009069
X0056312Y0096
X00695Y006279
X008414Y0124618
X009129Y0133079
X010354Y0145328
X0107998Y0151103
X01144Y01684
X0074Y01735
Y0179
X0120282Y0128586
X0133653Y0125734
X0107333Y0106658
X004942Y0121721
X00346Y01222
X0034543Y0114043
X0032957Y0131957
X00174Y0142812
X0047512Y01498
X0047823Y01645
X0037674Y0200823
Y0212823
X0008674
T02
X0033Y0171701
Y0178
X0037724Y018115
Y017485
Y0168551
T03
X011Y0005
X012
X013
X014
X015
X016
X017
X018
Y0015
X017
X016
X015
X014
X013
X012
X011
X02
Y0005
X021
Y0015
X022
Y0005
X023
X024
X025
Y0015
X024
X023
X0250551Y0104803
X0260551
Y0114803
X0250551
Y0124803
X0260551
X025Y0205
X024
X023
X022
X021
X02
X019
X018
X0164
X0154
X0144
X0134
X0124
X0114
X0104
X0094
X0084
X0074
X00695Y0114
Y0104
Y0094
X0074Y0215
X0084
X0094
X0104
X0114
X0124
X0134
X0144
X0154
X0164
X018
X019
X02
X021
X022
X023
X024
X025
T04
X004478Y0044496
X00565Y0063
X0033
T05
X001548Y0160284
X0034181
Y0189417
X001548
T06
X0055Y0015
X026Y0035
Y0145
X006Y0205
M30
