G04*
G04 #@! TF.GenerationSoftware,Altium Limited,Altium Designer,19.1.8 (144)*
G04*
G04 Layer_Color=12632256*
%FSLAX25Y25*%
%MOIN*%
G70*
G01*
G75*
%ADD18C,0.00000*%
%ADD78C,0.06000*%
%ADD79C,0.07000*%
%ADD80C,0.06496*%
%ADD81C,0.04756*%
%ADD82O,0.10299X0.10299*%
%ADD83C,0.10299*%
%ADD84C,0.09449*%
D18*
X37921Y158709D02*
Y161858D01*
X30441D02*
X37921D01*
X30441Y158709D02*
Y161858D01*
Y158709D02*
X37921D01*
X19220Y187843D02*
Y190992D01*
X11740D02*
X19220D01*
X11740Y187843D02*
Y190992D01*
Y187843D02*
X19220D01*
X37921D02*
Y190992D01*
X30441D02*
X37921D01*
X30441Y187843D02*
Y190992D01*
Y187843D02*
X37921D01*
X19220Y158709D02*
Y161858D01*
X11740D02*
X19220D01*
X11740Y158709D02*
Y161858D01*
Y158709D02*
X19220D01*
D78*
X110000Y5000D02*
D03*
X120000D02*
D03*
X130000D02*
D03*
X140000D02*
D03*
X150000D02*
D03*
X160000D02*
D03*
X170000D02*
D03*
X180000D02*
D03*
X250000D02*
D03*
X240000D02*
D03*
X230000D02*
D03*
X220000D02*
D03*
X210000D02*
D03*
X200000D02*
D03*
X250000Y215000D02*
D03*
X240000D02*
D03*
X230000D02*
D03*
X220000D02*
D03*
X210000D02*
D03*
X200000D02*
D03*
X190000D02*
D03*
X180000D02*
D03*
X74000D02*
D03*
X84000D02*
D03*
X94000D02*
D03*
X104000D02*
D03*
X114000D02*
D03*
X124000D02*
D03*
X134000D02*
D03*
X144000D02*
D03*
X154000D02*
D03*
X164000D02*
D03*
Y205000D02*
D03*
X154000D02*
D03*
X144000D02*
D03*
X134000D02*
D03*
X124000D02*
D03*
X114000D02*
D03*
X104000D02*
D03*
X94000D02*
D03*
X84000D02*
D03*
X74000D02*
D03*
X180000Y15000D02*
D03*
X170000D02*
D03*
X160000D02*
D03*
X150000D02*
D03*
X140000D02*
D03*
X130000D02*
D03*
X120000D02*
D03*
X110000D02*
D03*
X180000Y205000D02*
D03*
X190000D02*
D03*
X200000D02*
D03*
X210000D02*
D03*
X220000D02*
D03*
X230000D02*
D03*
X240000D02*
D03*
X250000D02*
D03*
X200000Y15000D02*
D03*
X210000D02*
D03*
X220000D02*
D03*
X230000D02*
D03*
X240000D02*
D03*
X250000D02*
D03*
D79*
X260551Y104803D02*
D03*
X250551D02*
D03*
X260551Y114803D02*
D03*
X250551D02*
D03*
X260551Y124803D02*
D03*
X250551D02*
D03*
D80*
X69500Y94000D02*
D03*
Y104000D02*
D03*
Y114000D02*
D03*
D81*
X37724Y181150D02*
D03*
Y174850D02*
D03*
Y168551D02*
D03*
X33000Y178000D02*
D03*
Y171701D02*
D03*
D82*
X15480Y189417D02*
D03*
X34181D02*
D03*
Y160284D02*
D03*
D83*
X15480D02*
D03*
D84*
X44780Y44496D02*
D03*
X33000Y63000D02*
D03*
X56500D02*
D03*
M02*
