G04*
G04 #@! TF.GenerationSoftware,Altium Limited,Altium Designer,19.1.8 (144)*
G04*
G04 Layer_Physical_Order=3*
G04 Layer_Color=128*
%FSLAX25Y25*%
%MOIN*%
G70*
G01*
G75*
%ADD18C,0.00000*%
%ADD86C,0.04000*%
%ADD87C,0.08331*%
G04:AMPARAMS|DCode=88|XSize=103.307mil|YSize=103.307mil|CornerRadius=0mil|HoleSize=0mil|Usage=FLASHONLY|Rotation=0.000|XOffset=0mil|YOffset=0mil|HoleType=Round|Shape=Relief|Width=10mil|Gap=10mil|Entries=4|*
%AMTHD88*
7,0,0,0.10331,0.08331,0.01000,45*
%
%ADD88THD88*%
%ADD89C,0.06756*%
G04:AMPARAMS|DCode=90|XSize=87.559mil|YSize=87.559mil|CornerRadius=0mil|HoleSize=0mil|Usage=FLASHONLY|Rotation=0.000|XOffset=0mil|YOffset=0mil|HoleType=Round|Shape=Relief|Width=10mil|Gap=10mil|Entries=4|*
%AMTHD90*
7,0,0,0.08756,0.06756,0.01000,45*
%
%ADD90THD90*%
G04:AMPARAMS|DCode=91|XSize=140mil|YSize=140mil|CornerRadius=0mil|HoleSize=0mil|Usage=FLASHONLY|Rotation=0.000|XOffset=0mil|YOffset=0mil|HoleType=Round|Shape=Relief|Width=10mil|Gap=10mil|Entries=4|*
%AMTHD91*
7,0,0,0.14000,0.12000,0.01000,45*
%
%ADD91THD91*%
%ADD92C,0.10299*%
G04:AMPARAMS|DCode=93|XSize=122.992mil|YSize=122.992mil|CornerRadius=0mil|HoleSize=0mil|Usage=FLASHONLY|Rotation=0.000|XOffset=0mil|YOffset=0mil|HoleType=Round|Shape=Relief|Width=10mil|Gap=10mil|Entries=4|*
%AMTHD93*
7,0,0,0.12299,0.10299,0.01000,45*
%
%ADD93THD93*%
%ADD94C,0.16500*%
%ADD95C,0.05300*%
D18*
X37921Y158709D02*
Y161858D01*
X30441D02*
X37921D01*
X30441Y158709D02*
Y161858D01*
Y158709D02*
X37921D01*
X19220Y187843D02*
Y190992D01*
X11740D02*
X19220D01*
X11740Y187843D02*
Y190992D01*
Y187843D02*
X19220D01*
X37921D02*
Y190992D01*
X30441D02*
X37921D01*
X30441Y187843D02*
Y190992D01*
Y187843D02*
X37921D01*
X19220Y158709D02*
Y161858D01*
X11740D02*
X19220D01*
X11740Y158709D02*
Y161858D01*
Y158709D02*
X19220D01*
D86*
X260000Y164000D02*
Y215000D01*
Y164000D02*
X270000Y154000D01*
Y25000D02*
Y154000D01*
X260000Y15000D02*
X270000Y25000D01*
X260000Y0D02*
Y15000D01*
X0Y0D02*
X260000D01*
X0D02*
Y220000D01*
X255000D01*
X260000Y215000D01*
D87*
X110000Y5000D02*
D03*
X120000D02*
D03*
X130000D02*
D03*
X140000D02*
D03*
X150000D02*
D03*
X160000D02*
D03*
X170000D02*
D03*
X180000D02*
D03*
X250000D02*
D03*
X240000D02*
D03*
X230000D02*
D03*
X220000D02*
D03*
X210000D02*
D03*
X200000D02*
D03*
X250000Y215000D02*
D03*
X240000D02*
D03*
X230000D02*
D03*
X220000D02*
D03*
X210000D02*
D03*
X200000D02*
D03*
X190000D02*
D03*
X180000D02*
D03*
X74000D02*
D03*
X84000D02*
D03*
X94000D02*
D03*
X104000D02*
D03*
X114000D02*
D03*
X124000D02*
D03*
X134000D02*
D03*
X144000D02*
D03*
X154000D02*
D03*
X164000D02*
D03*
X250551Y104803D02*
D03*
X260551Y114803D02*
D03*
X250551D02*
D03*
X260551Y124803D02*
D03*
X250551D02*
D03*
X164000Y205000D02*
D03*
X154000D02*
D03*
X144000D02*
D03*
X134000D02*
D03*
X124000D02*
D03*
X114000D02*
D03*
X94000D02*
D03*
X84000D02*
D03*
X74000D02*
D03*
X180000Y15000D02*
D03*
X150000D02*
D03*
X140000D02*
D03*
X130000D02*
D03*
X120000D02*
D03*
X110000D02*
D03*
X180000Y205000D02*
D03*
X190000D02*
D03*
X200000D02*
D03*
X210000D02*
D03*
X220000D02*
D03*
X230000D02*
D03*
X240000D02*
D03*
X250000D02*
D03*
X200000Y15000D02*
D03*
X210000D02*
D03*
X220000D02*
D03*
X230000D02*
D03*
X240000D02*
D03*
X250000D02*
D03*
X69500Y94000D02*
D03*
Y104000D02*
D03*
Y114000D02*
D03*
D88*
X260551Y104803D02*
D03*
X104000Y205000D02*
D03*
X170000Y15000D02*
D03*
X160000D02*
D03*
D89*
X37724Y181150D02*
D03*
Y174850D02*
D03*
X33000Y178000D02*
D03*
Y171701D02*
D03*
D90*
X37724Y168551D02*
D03*
D91*
X15480Y189417D02*
D03*
X34181D02*
D03*
Y160284D02*
D03*
X15480D02*
D03*
D92*
X44780Y44496D02*
D03*
X56500Y63000D02*
D03*
D93*
X33000D02*
D03*
D94*
X260000Y35000D02*
D03*
Y145000D02*
D03*
X60000Y205000D02*
D03*
X55000Y15000D02*
D03*
D95*
X169900Y82500D02*
D03*
X147900Y91600D02*
D03*
X159100Y89200D02*
D03*
X249200Y90500D02*
D03*
X227600Y83900D02*
D03*
X168000Y94700D02*
D03*
X241500Y119400D02*
D03*
X164800Y91300D02*
D03*
X103540Y145328D02*
D03*
X74000Y173500D02*
D03*
Y179000D02*
D03*
X182000Y77000D02*
D03*
X184500Y80000D02*
D03*
X154000Y69000D02*
D03*
X157000Y66500D02*
D03*
X190000Y87000D02*
D03*
X188500Y83500D02*
D03*
X90000Y90690D02*
D03*
X80300Y90690D02*
D03*
X56312Y96000D02*
D03*
X69500Y62790D02*
D03*
X37674Y200823D02*
D03*
X47823Y164500D02*
D03*
M02*
